<svg width="40" height="36" viewBox="0 0 40 36" fill="none" xmlns="http://www.w3.org/2000/svg">
<path d="M40 3L38.7617 6.33333H35.5467L29.7567 26.3333H7.69167L0 8H28.02L27.08 11.3333H5.01333L9.90833 23H27.2883L33.0083 3H40ZM14.1667 28C12.7867 28 11.6667 29.12 11.6667 30.5C11.6667 31.8817 12.7867 33 14.1667 33C15.5467 33 16.6667 31.8817 16.6667 30.5C16.6667 29.12 15.5467 28 14.1667 28ZM22.5 28C21.12 28 20 29.1183 20 30.5C20 31.8817 21.12 33 22.5 33C23.88 33 25 31.8817 25 30.5C25 29.12 23.88 28 22.5 28Z" fill="#1A323E"/>
</svg>
