<svg width="59" height="54" viewBox="0 0 59 54" fill="none" xmlns="http://www.w3.org/2000/svg">
<path d="M30 2C16.1937 2 5 13.1937 5 27C5 40.8062 16.1937 52 30 52C43.8062 52 55 40.8062 55 27C55 13.1937 43.8062 2 30 2ZM46.1521 40.1354C45.6083 38.9146 44.5083 38.0708 42.2542 37.55C37.4771 36.4479 33.0292 35.4813 35.1854 31.4146C41.7375 19.0354 36.9208 12.4167 30 12.4167C22.9417 12.4167 18.2417 19.2896 24.8146 31.4146C27.0354 35.5062 22.4229 36.4708 17.7458 37.55C15.4875 38.0708 14.3958 38.9208 13.8562 40.1458C10.9292 36.5562 9.16667 31.9812 9.16667 27C9.16667 15.5125 18.5125 6.16667 30 6.16667C41.4875 6.16667 50.8333 15.5125 50.8333 27C50.8333 31.9771 49.0729 36.5479 46.1521 40.1354Z" fill="white"/>
</svg>
